PathFileType	4	(X/Y/Z)	/Users/itak/Documents/Research/Walk-IL/dataset/trc/00390_00012.trc
DataRate	CameraRate	NumFrames	NumMarkers	Units	OrigDataRate	OrigDataStartFrame	OrigNumFrames
100.000000	100.000000	4	55	mm	100.000000	515	589
Frame#	Time	LPSI			L3			STRN			T10			C7			CLAV			RBAK			LBAK			LSHO			LUPA			LAEL			LAOL			LWTS			LWPS			LFRA			LIFD			LHPS			LHTS			RSHO			RUPA			RAEL			RAOL			RWTS			RWPS			RFRA			RIFD			RHTS			RHPS			RBHD			LFHD			RFHD			LBHD			LHIP			RHIP			RASI			LASI			LKNE			LTHI			LANK			LTIP			LTOE			LMT5			LHEE			RKNE			RTHI			RANK			RTIP			RTOE			RMT1			RMT5			RHEE			RPSI			LMT1			*53			*54			
		X1	Y1	Z1	X2	Y2	Z2	X3	Y3	Z3	X4	Y4	Z4	X5	Y5	Z5	X6	Y6	Z6	X7	Y7	Z7	X8	Y8	Z8	X9	Y9	Z9	X10	Y10	Z10	X11	Y11	Z11	X12	Y12	Z12	X13	Y13	Z13	X14	Y14	Z14	X15	Y15	Z15	X16	Y16	Z16	X17	Y17	Z17	X18	Y18	Z18	X19	Y19	Z19	X20	Y20	Z20	X21	Y21	Z21	X22	Y22	Z22	X23	Y23	Z23	X24	Y24	Z24	X25	Y25	Z25	X26	Y26	Z26	X27	Y27	Z27	X28	Y28	Z28	X29	Y29	Z29	X30	Y30	Z30	X31	Y31	Z31	X32	Y32	Z32	X33	Y33	Z33	X34	Y34	Z34	X35	Y35	Z35	X36	Y36	Z36	X37	Y37	Z37	X38	Y38	Z38	X39	Y39	Z39	X40	Y40	Z40	X41	Y41	Z41	X42	Y42	Z42	X43	Y43	Z43	X44	Y44	Z44	X45	Y45	Z45	X46	Y46	Z46	X47	Y47	Z47	X48	Y48	Z48	X49	Y49	Z49	X50	Y50	Z50	X51	Y51	Z51	X52	Y52	Z52	X53	Y53	Z53	X54	Y54	Z54	X55	Y55	Z55	

516	5.15	-1464.78125	977.4884033203125	-123.3365173339844	-1465.46875	1052.75341796875	-54.47934341430664	-1232.419677734375	1223.81494140625	-47.43846893310547	-1481.643432617188	1157.543090820312	-55.56551361083984	-1452.94775390625	1408.0732421875	-56.7202262878418	-1293.65185546875	1339.434204101562	-47.40484237670898	-1489.568237304688	1257.921630859375	4.842039585113525	-1461.050537109375	1372.361083984375	-161.4630432128906	-1374.4755859375	1395.419189453125	-209.6708679199219	-1389.177124023438	1277.461181640625	-281.4663696289062	-1353.698974609375	1085.513916015625	-309.4792175292969	-1398.1875	1056.872192382812	-243.9773254394531	-1242.927856445312	877.445556640625	-288.3792419433594	-1303.702880859375	861.17041015625	-339.532470703125	-1330.46728515625	982.8868408203125	-322.7279357910156	-1238.115844726562	699.0453491210938	-297.948974609375	-1281.536254882812	777.5503540039062	-336.492431640625	-1219.403686523438	784.0803833007812	-314.2785949707031	-1402.302856445312	1386.425048828125	102.5364990234375	-1415.716430664062	1319.330688476562	159.4970397949219	-1395.470825195312	1058.291015625	198.9774169921875	-1408.31201171875	1046.715209960938	104.9220428466797	-1242.284057617188	860.5946044921875	188.73974609375	-1293.854370117188	842.7079467773438	243.2422790527344	-1365.912109375	995.7190551757812	217.6097106933594	-1224.323608398438	687.3433227539062	195.0982818603516	-1216.918823242188	757.3714599609375	214.6058502197266	-1279.14013671875	754.0744018554688	244.3788604736328	-1396.847534179688	1586.109741210938	55.34959030151367	-1322.142944335938	1623.38671875	-125.5049591064453	-1285.5029296875	1622.645751953125	-8.658129692077637	-1461.161743164062	1582.591430664062	-94.12241363525391	-1385.6767578125	975.4776000976562	-244.3917388916016	-1368.147094726562	960.4249877929688	118.0468673706055	-1238.648803710938	976.8118286132812	58.62682723999023	-1274.6123046875	969.8170776367188	-201.3628997802734	-1332.54638671875	481.2789611816406	-230.7032775878906	-1341.169555664062	624.1824951171875	-241.1761322021484	-1430.189453125	43.79275131225586	-195.8110046386719	-1383.250732421875	248.5850219726562	-225.2101593017578	-1219.846557617188	49.65415191650391	-126.4656524658203	-1301.476318359375	45.21945190429688	-202.5369262695312	-1470.503662109375	39.86754608154297	-139.3529968261719	-1330.505981445312	475.1824340820312	83.63490295410156	-1287.829467773438	736.9345092773438	110.5648727416992	-1410.293212890625	57.57992172241211	50.15461349487305	-1328.9736328125	347.0348510742188	66.67214965820312	-1233.130126953125	47.89269638061523	-10.24425506591797	-1304.316650390625	45.61452102661133	-42.01399230957031	-1324.19482421875	52.83641052246094	56.13779449462891	-1482.923217773438	40.93572998046875	-3.622799158096313	-1455.620849609375	983.5321044921875	7.368023872375488	-1298.73974609375	45.87659072875977	-98.13694763183594	nan	nan	nan	nan	nan	nan	
517	5.16	-1465.76123046875	977.1484375	-123.3532257080078	-1466.789794921875	1052.84814453125	-54.5672492980957	-1233.264282226562	1223.867919921875	-47.78445434570312	-1482.519775390625	1157.636596679688	-55.7413444519043	-1453.78466796875	1408.151123046875	-56.86965560913086	-1294.726196289062	1339.417236328125	-47.82181549072266	-1490.3662109375	1258.020629882812	4.749722957611084	-1462.040771484375	1372.415283203125	-161.6051483154297	-1375.515502929688	1395.41796875	-209.9576263427734	-1390.488037109375	1277.4130859375	-281.6360473632812	-1355.428588867188	1085.41259765625	-309.6702880859375	-1399.669677734375	1056.85986328125	-243.9384460449219	-1244.921508789062	877.158935546875	-288.686279296875	-1305.762573242188	861.0155639648438	-339.8159484863281	-1332.391479492188	982.769287109375	-322.9430847167969	-1240.008178710938	698.6717529296875	-297.9815063476562	-1283.734741210938	777.3062133789062	-336.747314453125	-1221.432373046875	783.7402954101562	-314.4500427246094	-1402.973999023438	1386.466796875	102.3193817138672	-1416.405151367188	1319.450439453125	159.3539886474609	-1396.3623046875	1058.424194335938	199.0575714111328	-1409.319946289062	1046.756591796875	104.9450225830078	-1243.101684570312	860.6966552734375	188.8708190917969	-1294.651611328125	842.8256225585938	243.3316345214844	-1366.741943359375	995.8062133789062	217.6490936279297	-1224.90185546875	687.5137329101562	195.4886932373047	-1217.713745117188	757.6130981445312	214.9001159667969	-1279.983154296875	754.3203735351562	244.61474609375	-1397.848266601562	1586.082275390625	55.18265151977539	-1323.145629882812	1623.603271484375	-125.6173400878906	-1286.571411132812	1622.794189453125	-8.762819290161133	-1462.066528320312	1582.472045898438	-94.33728790283203	-1386.791137695312	975.3287963867188	-244.5062713623047	-1368.850341796875	960.47607421875	117.8792266845703	-1239.389892578125	977.00244140625	58.25762176513672	-1275.963500976562	969.6825561523438	-201.5438995361328	-1332.881469726562	481.2923278808594	-230.7185974121094	-1341.906982421875	624.2158813476562	-241.2584228515625	-1430.210571289062	43.8171501159668	-195.7543182373047	-1383.389526367188	248.5592193603516	-225.1197662353516	-1219.868408203125	49.65785598754883	-126.4586944580078	-1301.502563476562	45.27541351318359	-202.5107879638672	-1470.463989257812	39.90081024169922	-139.302001953125	-1330.919555664062	475.3357238769531	83.63399505615234	-1288.300537109375	737.1471557617188	110.41015625	-1410.290649414062	57.56802368164062	50.16274261474609	-1329.354858398438	347.1136169433594	66.69039916992188	-1233.144775390625	47.90341186523438	-10.25371742248535	-1304.341064453125	45.63224411010742	-42.01555252075195	-1324.204223632812	52.83578109741211	56.13529586791992	-1482.933959960938	40.90820693969727	-3.609785079956055	-1456.46923828125	983.354736328125	7.322975158691406	-1298.77001953125	45.83501434326172	-98.10248565673828	nan	nan	nan	nan	nan	nan	
518	5.17	-1466.700317382812	976.8844604492188	-123.3252639770508	-1468.040283203125	1052.940307617188	-54.61362457275391	-1234.088012695312	1223.936767578125	-48.14397811889648	-1483.383911132812	1157.731323242188	-55.85955429077148	-1454.586547851562	1408.227905273438	-57.015625	-1295.72802734375	1339.4189453125	-48.24118041992188	-1491.136352539062	1258.122680664062	4.665844440460205	-1463.009033203125	1372.46142578125	-161.7421722412109	-1376.544555664062	1395.403198242188	-210.25439453125	-1391.77685546875	1277.352294921875	-281.7973327636719	-1357.156005859375	1085.301391601562	-309.8357543945312	-1401.122436523438	1056.838256835938	-243.8545837402344	-1246.838989257812	876.8946533203125	-289.0353393554688	-1307.769165039062	860.8467407226562	-340.0755615234375	-1334.300659179688	982.6397705078125	-323.1474304199219	-1241.490600585938	698.322998046875	-298.0322265625	-1285.842529296875	777.0769653320312	-337.0151062011719	-1223.41845703125	783.4172973632812	-314.7064514160156	-1403.608276367188	1386.511352539062	102.1064682006836	-1417.03759765625	1319.568359375	159.2089538574219	-1397.190307617188	1058.595825195312	199.1101989746094	-1410.28564453125	1046.809814453125	104.9451370239258	-1243.968383789062	860.7272338867188	189.0038909912109	-1295.528442382812	842.9212646484375	243.4214324951172	-1367.525268554688	995.9078979492188	217.6868438720703	-1225.755249023438	687.5972290039062	195.8811798095703	-1218.649047851562	757.74267578125	215.2182922363281	-1280.907592773438	754.51171875	244.8862915039062	-1398.803344726562	1586.046875	55.02286148071289	-1324.114624023438	1623.825073242188	-125.7172622680664	-1287.582275390625	1622.939453125	-8.859386444091797	-1462.952880859375	1582.371215820312	-94.51743316650391	-1387.838012695312	975.2041625976562	-244.5543975830078	-1369.52294921875	960.5270385742188	117.7590713500977	-1240.12744140625	977.1751708984375	57.92813110351562	-1277.2890625	969.5751953125	-201.6719360351562	-1333.141479492188	481.3038635253906	-230.7069396972656	-1342.58154296875	624.2532348632812	-241.3205261230469	-1430.230102539062	43.83784484863281	-195.7041778564453	-1383.4921875	248.5404357910156	-225.0258636474609	-1219.885498046875	49.66680145263672	-126.4536972045898	-1301.52001953125	45.32226943969727	-202.4912261962891	-1470.375366210938	39.87785720825195	-139.2184753417969	-1331.277465820312	475.46240234375	83.61417388916016	-1288.734375	737.3326416015625	110.2641143798828	-1410.283569335938	57.5573616027832	50.16455459594727	-1329.66357421875	347.1824340820312	66.68167877197266	-1233.154052734375	47.90444946289062	-10.268723487854	-1304.35595703125	45.63785934448242	-42.02006149291992	-1324.211669921875	52.83814239501953	56.12884902954102	-1482.9423828125	40.88733673095703	-3.598829507827759	-1457.262817382812	983.2191162109375	7.334785938262939	-1298.792602539062	45.79681015014648	-98.07228088378906	nan	nan	nan	nan	nan	nan	
519	5.18	-1467.598510742188	976.710693359375	-123.2557601928711	-1469.183349609375	1053.0244140625	-54.61511611938477	-1234.894897460938	1224.017578125	-48.51041030883789	-1484.252685546875	1157.824096679688	-55.9095458984375	-1455.356567382812	1408.301513671875	-57.15895462036133	-1296.625732421875	1339.439453125	-48.64104080200195	-1491.8837890625	1258.224975585938	4.590866565704346	-1463.95068359375	1372.49609375	-161.8726196289062	-1377.562377929688	1395.369140625	-210.5565948486328	-1393.036376953125	1277.276733398438	-281.9533081054688	-1358.86328125	1085.182983398438	-309.9800109863281	-1402.537109375	1056.804931640625	-243.7385406494141	-1248.679321289062	876.6430053710938	-289.4330749511719	-1309.720825195312	860.6564331054688	-340.318603515625	-1336.180053710938	982.4963989257812	-323.3495483398438	-1242.666748046875	698.0016479492188	-298.121337890625	-1287.85888671875	776.8512573242188	-337.2941284179688	-1225.368774414062	783.098876953125	-315.0532531738281	-1404.208251953125	1386.561889648438	101.9039077758789	-1417.617797851562	1319.684814453125	159.0603485107422	-1397.951049804688	1058.798706054688	199.1288757324219	-1411.192016601562	1046.867309570312	104.9218292236328	-1244.8837890625	860.6910400390625	189.1342315673828	-1296.48779296875	842.9965209960938	243.5135650634766	-1368.272827148438	996.0260620117188	217.7157287597656	-1226.86181640625	687.6001586914062	196.2639770507812	-1219.69482421875	757.7521362304688	215.549560546875	-1281.922485351562	754.6405639648438	245.1850891113281	-1399.712158203125	1585.993408203125	54.87115859985352	-1325.043212890625	1624.048950195312	-125.8038558959961	-1288.53271484375	1623.079711914062	-8.939042091369629	-1463.81787109375	1582.286499023438	-94.67322540283203	-1388.823974609375	975.1141357421875	-244.5444030761719	-1370.162231445312	960.5755615234375	117.6879959106445	-1240.84716796875	977.3274536132812	57.64862823486328	-1278.569702148438	969.5049438476562	-201.7486267089844	-1333.329711914062	481.3167419433594	-230.6712646484375	-1343.168090820312	624.2929077148438	-241.35888671875	-1430.245727539062	43.85317230224609	-195.6647796630859	-1383.555419921875	248.5281219482422	-224.9368286132812	-1219.897094726562	49.67729187011719	-126.4511871337891	-1301.528442382812	45.357421875	-202.4788513183594	-1470.255004882812	39.80924987792969	-139.1170806884766	-1331.584106445312	475.5592956542969	83.57898712158203	-1289.14111328125	737.4835815429688	110.1341705322266	-1410.27294921875	57.54896926879883	50.16059875488281	-1329.896362304688	347.2393798828125	66.65166473388672	-1233.156127929688	47.89134979248047	-10.2887020111084	-1304.358764648438	45.62893295288086	-42.02605438232422	-1324.214721679688	52.84239196777344	56.11809158325195	-1482.947875976562	40.87390899658203	-3.590728998184204	-1458.00048828125	983.1309204101562	7.398673057556152	-1298.80224609375	45.76638412475586	-98.04944610595703	nan	nan	nan	nan	nan	nan	
